<mxfile host="app.diagrams.net" agent="Mozilla/5.0 (Windows NT 10.0; Win64; x64) AppleWebKit/537.36 (KHTML, like Gecko) Chrome/130.0.0.0 Safari/537.36" version="24.8.2">
  <diagram name="PÃ¡gina-1" id="xGP7IJS22eXjuodBx_O8">
    <mxGraphModel dx="1259" dy="692" grid="1" gridSize="10" guides="1" tooltips="1" connect="1" arrows="1" fold="1" page="1" pageScale="1" pageWidth="827" pageHeight="1169" math="0" shadow="0">
      <root>
        <mxCell id="0" />
        <mxCell id="1" parent="0" />
        <mxCell id="WXJM2lwCBf-DWaWHUaFj-5" value="Bebidas" style="strokeWidth=1;shadow=0;dashed=0;align=center;html=1;shape=mxgraph.mockup.buttons.button;strokeColor=#666666;fontColor=#ffffff;mainText=;buttonStyle=round;fontSize=17;fontStyle=1;fillColor=#008cff;whiteSpace=wrap;" vertex="1" parent="1">
          <mxGeometry x="50" y="190" width="150" height="50" as="geometry" />
        </mxCell>
        <mxCell id="WXJM2lwCBf-DWaWHUaFj-6" value="Entrantes" style="strokeWidth=1;shadow=0;dashed=0;align=center;html=1;shape=mxgraph.mockup.buttons.button;strokeColor=#666666;fontColor=#ffffff;mainText=;buttonStyle=round;fontSize=17;fontStyle=1;fillColor=#008cff;whiteSpace=wrap;" vertex="1" parent="1">
          <mxGeometry x="50" y="40" width="150" height="50" as="geometry" />
        </mxCell>
        <mxCell id="WXJM2lwCBf-DWaWHUaFj-7" value="Postres" style="strokeWidth=1;shadow=0;dashed=0;align=center;html=1;shape=mxgraph.mockup.buttons.button;strokeColor=#666666;fontColor=#ffffff;mainText=;buttonStyle=round;fontSize=17;fontStyle=1;fillColor=#008cff;whiteSpace=wrap;" vertex="1" parent="1">
          <mxGeometry x="50" y="260" width="150" height="50" as="geometry" />
        </mxCell>
        <mxCell id="WXJM2lwCBf-DWaWHUaFj-8" value="" style="endArrow=classic;html=1;rounded=0;exitX=0.993;exitY=0.573;exitDx=0;exitDy=0;exitPerimeter=0;" edge="1" parent="1" source="WXJM2lwCBf-DWaWHUaFj-6">
          <mxGeometry width="50" height="50" relative="1" as="geometry">
            <mxPoint x="300" y="290" as="sourcePoint" />
            <mxPoint x="370" y="60" as="targetPoint" />
            <Array as="points" />
          </mxGeometry>
        </mxCell>
        <mxCell id="WXJM2lwCBf-DWaWHUaFj-18" value="" style="swimlane;strokeColor=#999999;swimlaneFillColor=#FFFFFF;fillColor=#ffffff;fontColor=#666666;fontStyle=0;childLayout=stackLayout;horizontal=1;startSize=0;horizontalStack=0;resizeParent=1;resizeParentMax=0;resizeLast=0;collapsible=0;marginBottom=0;whiteSpace=wrap;html=1;" vertex="1" parent="1">
          <mxGeometry x="380" y="10" width="110" height="120" as="geometry" />
        </mxCell>
        <mxCell id="WXJM2lwCBf-DWaWHUaFj-19" value="Option 1" style="text;strokeColor=none;align=left;verticalAlign=middle;spacingLeft=27;spacingRight=10;overflow=hidden;points=[[0,0.5],[1,0.5]];portConstraint=eastwest;rotatable=0;whiteSpace=wrap;html=1;fillColor=none;fontColor=inherit;fontSize=17;" vertex="1" parent="WXJM2lwCBf-DWaWHUaFj-18">
          <mxGeometry width="110" height="30" as="geometry" />
        </mxCell>
        <mxCell id="WXJM2lwCBf-DWaWHUaFj-20" value="" style="resizable=0;fillColor=#EEEEEE;strokeColor=#999999;gradientColor=#cccccc;html=1;" vertex="1" parent="WXJM2lwCBf-DWaWHUaFj-19">
          <mxGeometry y="0.5" width="15" height="15" relative="1" as="geometry">
            <mxPoint x="8" y="-7.5" as="offset" />
          </mxGeometry>
        </mxCell>
        <mxCell id="WXJM2lwCBf-DWaWHUaFj-21" value="Option 2" style="text;strokeColor=none;align=left;verticalAlign=middle;spacingLeft=27;spacingRight=10;overflow=hidden;points=[[0,0.5],[1,0.5]];portConstraint=eastwest;rotatable=0;whiteSpace=wrap;html=1;rSize=5;fillColor=none;fontColor=inherit;fontSize=17;" vertex="1" parent="WXJM2lwCBf-DWaWHUaFj-18">
          <mxGeometry y="30" width="110" height="30" as="geometry" />
        </mxCell>
        <mxCell id="WXJM2lwCBf-DWaWHUaFj-22" value="" style="resizable=0;fillColor=#EEEEEE;strokeColor=#999999;gradientColor=#cccccc;html=1;" vertex="1" parent="WXJM2lwCBf-DWaWHUaFj-21">
          <mxGeometry y="0.5" width="15" height="15" relative="1" as="geometry">
            <mxPoint x="8" y="-7.5" as="offset" />
          </mxGeometry>
        </mxCell>
        <mxCell id="WXJM2lwCBf-DWaWHUaFj-23" value="Option 3" style="text;strokeColor=none;align=left;verticalAlign=middle;spacingLeft=27;spacingRight=10;overflow=hidden;points=[[0,0.5],[1,0.5]];portConstraint=eastwest;rotatable=0;whiteSpace=wrap;html=1;rSize=5;fillColor=none;fontColor=#008CFF;fontSize=17;" vertex="1" parent="WXJM2lwCBf-DWaWHUaFj-18">
          <mxGeometry y="60" width="110" height="30" as="geometry" />
        </mxCell>
        <mxCell id="WXJM2lwCBf-DWaWHUaFj-24" value="" style="shape=mxgraph.mockup.forms.checkbox;resizable=0;fillColor=#AAAAAA;gradientColor=#666666;strokeColor=#444444;html=1;" vertex="1" parent="WXJM2lwCBf-DWaWHUaFj-23">
          <mxGeometry y="0.5" width="15" height="15" relative="1" as="geometry">
            <mxPoint x="8" y="-7.5" as="offset" />
          </mxGeometry>
        </mxCell>
        <mxCell id="WXJM2lwCBf-DWaWHUaFj-25" value="Option 4" style="text;strokeColor=none;align=left;verticalAlign=middle;spacingLeft=27;spacingRight=10;overflow=hidden;points=[[0,0.5],[1,0.5]];portConstraint=eastwest;rotatable=0;whiteSpace=wrap;html=1;fillColor=none;fontColor=inherit;fontSize=17;" vertex="1" parent="WXJM2lwCBf-DWaWHUaFj-18">
          <mxGeometry y="90" width="110" height="30" as="geometry" />
        </mxCell>
        <mxCell id="WXJM2lwCBf-DWaWHUaFj-26" value="" style="resizable=0;fillColor=#EEEEEE;strokeColor=#999999;gradientColor=#cccccc;html=1;" vertex="1" parent="WXJM2lwCBf-DWaWHUaFj-25">
          <mxGeometry y="0.5" width="15" height="15" relative="1" as="geometry">
            <mxPoint x="8" y="-7.5" as="offset" />
          </mxGeometry>
        </mxCell>
        <mxCell id="WXJM2lwCBf-DWaWHUaFj-27" value="" style="endArrow=classic;html=1;rounded=0;exitX=0.999;exitY=0.464;exitDx=0;exitDy=0;exitPerimeter=0;" edge="1" parent="1" source="WXJM2lwCBf-DWaWHUaFj-5">
          <mxGeometry width="50" height="50" relative="1" as="geometry">
            <mxPoint x="300" y="290" as="sourcePoint" />
            <mxPoint x="590" y="140" as="targetPoint" />
            <Array as="points">
              <mxPoint x="400" y="220" />
            </Array>
          </mxGeometry>
        </mxCell>
        <mxCell id="WXJM2lwCBf-DWaWHUaFj-28" value="" style="swimlane;strokeColor=#999999;swimlaneFillColor=#FFFFFF;fillColor=#ffffff;fontColor=#666666;fontStyle=0;childLayout=stackLayout;horizontal=1;startSize=0;horizontalStack=0;resizeParent=1;resizeParentMax=0;resizeLast=0;collapsible=0;marginBottom=0;whiteSpace=wrap;html=1;" vertex="1" parent="1">
          <mxGeometry x="590" y="75" width="110" height="120" as="geometry" />
        </mxCell>
        <mxCell id="WXJM2lwCBf-DWaWHUaFj-29" value="Option 1" style="text;strokeColor=none;align=left;verticalAlign=middle;spacingLeft=27;spacingRight=10;overflow=hidden;points=[[0,0.5],[1,0.5]];portConstraint=eastwest;rotatable=0;whiteSpace=wrap;html=1;fillColor=none;fontColor=inherit;fontSize=17;" vertex="1" parent="WXJM2lwCBf-DWaWHUaFj-28">
          <mxGeometry width="110" height="30" as="geometry" />
        </mxCell>
        <mxCell id="WXJM2lwCBf-DWaWHUaFj-30" value="" style="resizable=0;fillColor=#EEEEEE;strokeColor=#999999;gradientColor=#cccccc;html=1;" vertex="1" parent="WXJM2lwCBf-DWaWHUaFj-29">
          <mxGeometry y="0.5" width="15" height="15" relative="1" as="geometry">
            <mxPoint x="8" y="-7.5" as="offset" />
          </mxGeometry>
        </mxCell>
        <mxCell id="WXJM2lwCBf-DWaWHUaFj-31" value="Option 2" style="text;strokeColor=none;align=left;verticalAlign=middle;spacingLeft=27;spacingRight=10;overflow=hidden;points=[[0,0.5],[1,0.5]];portConstraint=eastwest;rotatable=0;whiteSpace=wrap;html=1;rSize=5;fillColor=none;fontColor=inherit;fontSize=17;" vertex="1" parent="WXJM2lwCBf-DWaWHUaFj-28">
          <mxGeometry y="30" width="110" height="30" as="geometry" />
        </mxCell>
        <mxCell id="WXJM2lwCBf-DWaWHUaFj-32" value="" style="resizable=0;fillColor=#EEEEEE;strokeColor=#999999;gradientColor=#cccccc;html=1;" vertex="1" parent="WXJM2lwCBf-DWaWHUaFj-31">
          <mxGeometry y="0.5" width="15" height="15" relative="1" as="geometry">
            <mxPoint x="8" y="-7.5" as="offset" />
          </mxGeometry>
        </mxCell>
        <mxCell id="WXJM2lwCBf-DWaWHUaFj-33" value="Option 3" style="text;strokeColor=none;align=left;verticalAlign=middle;spacingLeft=27;spacingRight=10;overflow=hidden;points=[[0,0.5],[1,0.5]];portConstraint=eastwest;rotatable=0;whiteSpace=wrap;html=1;rSize=5;fillColor=none;fontColor=#008CFF;fontSize=17;" vertex="1" parent="WXJM2lwCBf-DWaWHUaFj-28">
          <mxGeometry y="60" width="110" height="30" as="geometry" />
        </mxCell>
        <mxCell id="WXJM2lwCBf-DWaWHUaFj-34" value="" style="shape=mxgraph.mockup.forms.checkbox;resizable=0;fillColor=#AAAAAA;gradientColor=#666666;strokeColor=#444444;html=1;" vertex="1" parent="WXJM2lwCBf-DWaWHUaFj-33">
          <mxGeometry y="0.5" width="15" height="15" relative="1" as="geometry">
            <mxPoint x="8" y="-7.5" as="offset" />
          </mxGeometry>
        </mxCell>
        <mxCell id="WXJM2lwCBf-DWaWHUaFj-35" value="Option 4" style="text;strokeColor=none;align=left;verticalAlign=middle;spacingLeft=27;spacingRight=10;overflow=hidden;points=[[0,0.5],[1,0.5]];portConstraint=eastwest;rotatable=0;whiteSpace=wrap;html=1;fillColor=none;fontColor=inherit;fontSize=17;" vertex="1" parent="WXJM2lwCBf-DWaWHUaFj-28">
          <mxGeometry y="90" width="110" height="30" as="geometry" />
        </mxCell>
        <mxCell id="WXJM2lwCBf-DWaWHUaFj-36" value="" style="resizable=0;fillColor=#EEEEEE;strokeColor=#999999;gradientColor=#cccccc;html=1;" vertex="1" parent="WXJM2lwCBf-DWaWHUaFj-35">
          <mxGeometry y="0.5" width="15" height="15" relative="1" as="geometry">
            <mxPoint x="8" y="-7.5" as="offset" />
          </mxGeometry>
        </mxCell>
        <mxCell id="WXJM2lwCBf-DWaWHUaFj-37" value="" style="endArrow=classic;html=1;rounded=0;exitX=1.006;exitY=0.5;exitDx=0;exitDy=0;exitPerimeter=0;" edge="1" parent="1" source="WXJM2lwCBf-DWaWHUaFj-7">
          <mxGeometry width="50" height="50" relative="1" as="geometry">
            <mxPoint x="300" y="290" as="sourcePoint" />
            <mxPoint x="350" y="300" as="targetPoint" />
          </mxGeometry>
        </mxCell>
        <mxCell id="WXJM2lwCBf-DWaWHUaFj-47" value="" style="curved=1;endArrow=classic;html=1;rounded=0;exitX=1.032;exitY=0.076;exitDx=0;exitDy=0;exitPerimeter=0;entryX=0.989;entryY=0.864;entryDx=0;entryDy=0;entryPerimeter=0;" edge="1" parent="1" source="WXJM2lwCBf-DWaWHUaFj-23" target="WXJM2lwCBf-DWaWHUaFj-88">
          <mxGeometry width="50" height="50" relative="1" as="geometry">
            <mxPoint x="300" y="290" as="sourcePoint" />
            <mxPoint x="459.05999999999995" y="495.1700000000001" as="targetPoint" />
            <Array as="points">
              <mxPoint x="890" />
              <mxPoint x="670" y="470" />
              <mxPoint x="610" y="470" />
              <mxPoint x="650" y="530" />
              <mxPoint x="530" y="470" />
            </Array>
          </mxGeometry>
        </mxCell>
        <mxCell id="WXJM2lwCBf-DWaWHUaFj-48" value="" style="curved=1;endArrow=classic;html=1;rounded=0;entryX=0.996;entryY=0.446;entryDx=0;entryDy=0;entryPerimeter=0;" edge="1" parent="1" target="WXJM2lwCBf-DWaWHUaFj-88">
          <mxGeometry width="50" height="50" relative="1" as="geometry">
            <mxPoint x="700" y="160" as="sourcePoint" />
            <mxPoint x="454.3800000000001" y="447.98" as="targetPoint" />
            <Array as="points">
              <mxPoint x="750" y="160" />
              <mxPoint x="700" y="330" />
            </Array>
          </mxGeometry>
        </mxCell>
        <mxCell id="WXJM2lwCBf-DWaWHUaFj-51" value="" style="endArrow=classic;html=1;rounded=0;exitX=0.034;exitY=0.536;exitDx=0;exitDy=0;exitPerimeter=0;" edge="1" parent="1" source="WXJM2lwCBf-DWaWHUaFj-88">
          <mxGeometry width="50" height="50" relative="1" as="geometry">
            <mxPoint x="368.05999999999995" y="448.6300000000001" as="sourcePoint" />
            <mxPoint x="290" y="480" as="targetPoint" />
          </mxGeometry>
        </mxCell>
        <mxCell id="WXJM2lwCBf-DWaWHUaFj-54" value="Platos&lt;div&gt;Principales&lt;/div&gt;" style="strokeWidth=1;shadow=0;dashed=0;align=center;html=1;shape=mxgraph.mockup.buttons.button;strokeColor=#666666;fontColor=#ffffff;mainText=;buttonStyle=round;fontSize=17;fontStyle=1;fillColor=#008cff;whiteSpace=wrap;" vertex="1" parent="1">
          <mxGeometry x="50" y="110" width="150" height="50" as="geometry" />
        </mxCell>
        <mxCell id="WXJM2lwCBf-DWaWHUaFj-55" value="" style="endArrow=classic;html=1;rounded=0;entryX=-0.026;entryY=0.743;entryDx=0;entryDy=0;entryPerimeter=0;" edge="1" parent="1" target="WXJM2lwCBf-DWaWHUaFj-59">
          <mxGeometry width="50" height="50" relative="1" as="geometry">
            <mxPoint x="200" y="140" as="sourcePoint" />
            <mxPoint x="260" y="140" as="targetPoint" />
          </mxGeometry>
        </mxCell>
        <mxCell id="WXJM2lwCBf-DWaWHUaFj-56" value="" style="swimlane;strokeColor=#999999;swimlaneFillColor=#FFFFFF;fillColor=#ffffff;fontColor=#666666;fontStyle=0;childLayout=stackLayout;horizontal=1;startSize=0;horizontalStack=0;resizeParent=1;resizeParentMax=0;resizeLast=0;collapsible=0;marginBottom=0;whiteSpace=wrap;html=1;" vertex="1" parent="1">
          <mxGeometry x="270" y="90" width="110" height="120" as="geometry" />
        </mxCell>
        <mxCell id="WXJM2lwCBf-DWaWHUaFj-57" value="Option 1" style="text;strokeColor=none;align=left;verticalAlign=middle;spacingLeft=27;spacingRight=10;overflow=hidden;points=[[0,0.5],[1,0.5]];portConstraint=eastwest;rotatable=0;whiteSpace=wrap;html=1;fillColor=none;fontColor=inherit;fontSize=17;" vertex="1" parent="WXJM2lwCBf-DWaWHUaFj-56">
          <mxGeometry width="110" height="30" as="geometry" />
        </mxCell>
        <mxCell id="WXJM2lwCBf-DWaWHUaFj-58" value="" style="resizable=0;fillColor=#EEEEEE;strokeColor=#999999;gradientColor=#cccccc;html=1;" vertex="1" parent="WXJM2lwCBf-DWaWHUaFj-57">
          <mxGeometry y="0.5" width="15" height="15" relative="1" as="geometry">
            <mxPoint x="8" y="-7.5" as="offset" />
          </mxGeometry>
        </mxCell>
        <mxCell id="WXJM2lwCBf-DWaWHUaFj-59" value="Option 2" style="text;strokeColor=none;align=left;verticalAlign=middle;spacingLeft=27;spacingRight=10;overflow=hidden;points=[[0,0.5],[1,0.5]];portConstraint=eastwest;rotatable=0;whiteSpace=wrap;html=1;rSize=5;fillColor=none;fontColor=inherit;fontSize=17;" vertex="1" parent="WXJM2lwCBf-DWaWHUaFj-56">
          <mxGeometry y="30" width="110" height="30" as="geometry" />
        </mxCell>
        <mxCell id="WXJM2lwCBf-DWaWHUaFj-60" value="" style="resizable=0;fillColor=#EEEEEE;strokeColor=#999999;gradientColor=#cccccc;html=1;" vertex="1" parent="WXJM2lwCBf-DWaWHUaFj-59">
          <mxGeometry y="0.5" width="15" height="15" relative="1" as="geometry">
            <mxPoint x="8" y="-7.5" as="offset" />
          </mxGeometry>
        </mxCell>
        <mxCell id="WXJM2lwCBf-DWaWHUaFj-61" value="Option 3" style="text;strokeColor=none;align=left;verticalAlign=middle;spacingLeft=27;spacingRight=10;overflow=hidden;points=[[0,0.5],[1,0.5]];portConstraint=eastwest;rotatable=0;whiteSpace=wrap;html=1;rSize=5;fillColor=none;fontColor=#008CFF;fontSize=17;" vertex="1" parent="WXJM2lwCBf-DWaWHUaFj-56">
          <mxGeometry y="60" width="110" height="30" as="geometry" />
        </mxCell>
        <mxCell id="WXJM2lwCBf-DWaWHUaFj-62" value="" style="shape=mxgraph.mockup.forms.checkbox;resizable=0;fillColor=#AAAAAA;gradientColor=#666666;strokeColor=#444444;html=1;" vertex="1" parent="WXJM2lwCBf-DWaWHUaFj-61">
          <mxGeometry y="0.5" width="15" height="15" relative="1" as="geometry">
            <mxPoint x="8" y="-7.5" as="offset" />
          </mxGeometry>
        </mxCell>
        <mxCell id="WXJM2lwCBf-DWaWHUaFj-63" value="Option 4" style="text;strokeColor=none;align=left;verticalAlign=middle;spacingLeft=27;spacingRight=10;overflow=hidden;points=[[0,0.5],[1,0.5]];portConstraint=eastwest;rotatable=0;whiteSpace=wrap;html=1;fillColor=none;fontColor=inherit;fontSize=17;" vertex="1" parent="WXJM2lwCBf-DWaWHUaFj-56">
          <mxGeometry y="90" width="110" height="30" as="geometry" />
        </mxCell>
        <mxCell id="WXJM2lwCBf-DWaWHUaFj-64" value="" style="resizable=0;fillColor=#EEEEEE;strokeColor=#999999;gradientColor=#cccccc;html=1;" vertex="1" parent="WXJM2lwCBf-DWaWHUaFj-63">
          <mxGeometry y="0.5" width="15" height="15" relative="1" as="geometry">
            <mxPoint x="8" y="-7.5" as="offset" />
          </mxGeometry>
        </mxCell>
        <mxCell id="WXJM2lwCBf-DWaWHUaFj-67" value="" style="verticalLabelPosition=bottom;shadow=0;dashed=0;align=center;html=1;verticalAlign=top;strokeWidth=1;shape=mxgraph.mockup.misc.loading_circle_1;pointerEvents=1" vertex="1" parent="1">
          <mxGeometry x="210" y="460" width="90" height="90" as="geometry" />
        </mxCell>
        <mxCell id="WXJM2lwCBf-DWaWHUaFj-70" value="" style="html=1;shadow=0;dashed=0;align=center;verticalAlign=middle;shape=mxgraph.arrows2.bendDoubleArrow;dy=15;dx=38;arrowHead=55;rounded=1;rotation=45;" vertex="1" parent="1">
          <mxGeometry x="210" y="535" width="100" height="100" as="geometry" />
        </mxCell>
        <mxCell id="WXJM2lwCBf-DWaWHUaFj-71" value="Tarjeta" style="strokeWidth=1;shadow=0;dashed=0;align=center;html=1;shape=mxgraph.mockup.buttons.button;strokeColor=#666666;fontColor=#ffffff;mainText=;buttonStyle=round;fontSize=17;fontStyle=1;fillColor=#008cff;whiteSpace=wrap;" vertex="1" parent="1">
          <mxGeometry x="160" y="605" width="80" height="30" as="geometry" />
        </mxCell>
        <mxCell id="WXJM2lwCBf-DWaWHUaFj-72" value="Efectivo" style="strokeWidth=1;shadow=0;dashed=0;align=center;html=1;shape=mxgraph.mockup.buttons.button;strokeColor=#666666;fontColor=#ffffff;mainText=;buttonStyle=round;fontSize=17;fontStyle=1;fillColor=#008cff;whiteSpace=wrap;" vertex="1" parent="1">
          <mxGeometry x="285" y="605" width="80" height="30" as="geometry" />
        </mxCell>
        <mxCell id="WXJM2lwCBf-DWaWHUaFj-73" value="" style="html=1;shadow=0;dashed=0;align=center;verticalAlign=middle;shape=mxgraph.arrows2.sharpArrow;dy1=0.67;dx1=18;dx2=18;notch=0;rotation=90;" vertex="1" parent="1">
          <mxGeometry x="210" y="640" width="100" height="60" as="geometry" />
        </mxCell>
        <mxCell id="WXJM2lwCBf-DWaWHUaFj-74" value="Tomar en el local" style="strokeWidth=1;shadow=0;dashed=0;align=center;html=1;shape=mxgraph.mockup.buttons.button;strokeColor=#666666;fontColor=#ffffff;mainText=;buttonStyle=round;fontSize=17;fontStyle=1;fillColor=#008cff;whiteSpace=wrap;" vertex="1" parent="1">
          <mxGeometry x="90" y="780" width="150" height="30" as="geometry" />
        </mxCell>
        <mxCell id="WXJM2lwCBf-DWaWHUaFj-75" value="Llevar a casa" style="strokeWidth=1;shadow=0;dashed=0;align=center;html=1;shape=mxgraph.mockup.buttons.button;strokeColor=#666666;fontColor=#ffffff;mainText=;buttonStyle=round;fontSize=17;fontStyle=1;fillColor=#008cff;whiteSpace=wrap;" vertex="1" parent="1">
          <mxGeometry x="285" y="780" width="150" height="30" as="geometry" />
        </mxCell>
        <mxCell id="WXJM2lwCBf-DWaWHUaFj-76" value="" style="html=1;shadow=0;dashed=0;align=center;verticalAlign=middle;shape=mxgraph.arrows2.bendDoubleArrow;dy=7.33;dx=45;arrowHead=55;rounded=1;rotation=45;" vertex="1" parent="1">
          <mxGeometry x="210" y="710" width="100" height="100" as="geometry" />
        </mxCell>
        <mxCell id="WXJM2lwCBf-DWaWHUaFj-77" value="" style="swimlane;strokeColor=#999999;swimlaneFillColor=#FFFFFF;fillColor=#ffffff;fontColor=#666666;fontStyle=0;childLayout=stackLayout;horizontal=1;startSize=0;horizontalStack=0;resizeParent=1;resizeParentMax=0;resizeLast=0;collapsible=0;marginBottom=0;whiteSpace=wrap;html=1;" vertex="1" parent="1">
          <mxGeometry x="350" y="250" width="110" height="120" as="geometry" />
        </mxCell>
        <mxCell id="WXJM2lwCBf-DWaWHUaFj-78" value="Option 1" style="text;strokeColor=none;align=left;verticalAlign=middle;spacingLeft=27;spacingRight=10;overflow=hidden;points=[[0,0.5],[1,0.5]];portConstraint=eastwest;rotatable=0;whiteSpace=wrap;html=1;fillColor=none;fontColor=inherit;fontSize=17;" vertex="1" parent="WXJM2lwCBf-DWaWHUaFj-77">
          <mxGeometry width="110" height="30" as="geometry" />
        </mxCell>
        <mxCell id="WXJM2lwCBf-DWaWHUaFj-79" value="" style="resizable=0;fillColor=#EEEEEE;strokeColor=#999999;gradientColor=#cccccc;html=1;" vertex="1" parent="WXJM2lwCBf-DWaWHUaFj-78">
          <mxGeometry y="0.5" width="15" height="15" relative="1" as="geometry">
            <mxPoint x="8" y="-7.5" as="offset" />
          </mxGeometry>
        </mxCell>
        <mxCell id="WXJM2lwCBf-DWaWHUaFj-80" value="Option 2" style="text;strokeColor=none;align=left;verticalAlign=middle;spacingLeft=27;spacingRight=10;overflow=hidden;points=[[0,0.5],[1,0.5]];portConstraint=eastwest;rotatable=0;whiteSpace=wrap;html=1;rSize=5;fillColor=none;fontColor=inherit;fontSize=17;" vertex="1" parent="WXJM2lwCBf-DWaWHUaFj-77">
          <mxGeometry y="30" width="110" height="30" as="geometry" />
        </mxCell>
        <mxCell id="WXJM2lwCBf-DWaWHUaFj-81" value="" style="resizable=0;fillColor=#EEEEEE;strokeColor=#999999;gradientColor=#cccccc;html=1;" vertex="1" parent="WXJM2lwCBf-DWaWHUaFj-80">
          <mxGeometry y="0.5" width="15" height="15" relative="1" as="geometry">
            <mxPoint x="8" y="-7.5" as="offset" />
          </mxGeometry>
        </mxCell>
        <mxCell id="WXJM2lwCBf-DWaWHUaFj-82" value="Option 3" style="text;strokeColor=none;align=left;verticalAlign=middle;spacingLeft=27;spacingRight=10;overflow=hidden;points=[[0,0.5],[1,0.5]];portConstraint=eastwest;rotatable=0;whiteSpace=wrap;html=1;rSize=5;fillColor=none;fontColor=#008CFF;fontSize=17;" vertex="1" parent="WXJM2lwCBf-DWaWHUaFj-77">
          <mxGeometry y="60" width="110" height="30" as="geometry" />
        </mxCell>
        <mxCell id="WXJM2lwCBf-DWaWHUaFj-83" value="" style="shape=mxgraph.mockup.forms.checkbox;resizable=0;fillColor=#AAAAAA;gradientColor=#666666;strokeColor=#444444;html=1;" vertex="1" parent="WXJM2lwCBf-DWaWHUaFj-82">
          <mxGeometry y="0.5" width="15" height="15" relative="1" as="geometry">
            <mxPoint x="8" y="-7.5" as="offset" />
          </mxGeometry>
        </mxCell>
        <mxCell id="WXJM2lwCBf-DWaWHUaFj-84" value="Option 4" style="text;strokeColor=none;align=left;verticalAlign=middle;spacingLeft=27;spacingRight=10;overflow=hidden;points=[[0,0.5],[1,0.5]];portConstraint=eastwest;rotatable=0;whiteSpace=wrap;html=1;fillColor=none;fontColor=inherit;fontSize=17;" vertex="1" parent="WXJM2lwCBf-DWaWHUaFj-77">
          <mxGeometry y="90" width="110" height="30" as="geometry" />
        </mxCell>
        <mxCell id="WXJM2lwCBf-DWaWHUaFj-85" value="" style="resizable=0;fillColor=#EEEEEE;strokeColor=#999999;gradientColor=#cccccc;html=1;" vertex="1" parent="WXJM2lwCBf-DWaWHUaFj-84">
          <mxGeometry y="0.5" width="15" height="15" relative="1" as="geometry">
            <mxPoint x="8" y="-7.5" as="offset" />
          </mxGeometry>
        </mxCell>
        <mxCell id="WXJM2lwCBf-DWaWHUaFj-86" value="" style="curved=1;endArrow=classic;html=1;rounded=0;entryX=0.837;entryY=-0.027;entryDx=0;entryDy=0;entryPerimeter=0;" edge="1" parent="1" target="WXJM2lwCBf-DWaWHUaFj-88">
          <mxGeometry width="50" height="50" relative="1" as="geometry">
            <mxPoint x="460" y="330" as="sourcePoint" />
            <mxPoint x="483.5" y="390.52" as="targetPoint" />
            <Array as="points">
              <mxPoint x="510" y="330" />
              <mxPoint x="600" y="300" />
            </Array>
          </mxGeometry>
        </mxCell>
        <mxCell id="WXJM2lwCBf-DWaWHUaFj-87" value="" style="curved=1;endArrow=classic;html=1;rounded=0;entryX=0.989;entryY=0.064;entryDx=0;entryDy=0;entryPerimeter=0;" edge="1" parent="1" target="WXJM2lwCBf-DWaWHUaFj-88">
          <mxGeometry width="50" height="50" relative="1" as="geometry">
            <mxPoint x="380" y="190" as="sourcePoint" />
            <mxPoint x="490" y="412.69841269841277" as="targetPoint" />
            <Array as="points">
              <mxPoint x="430" y="190" />
              <mxPoint x="740" y="250" />
            </Array>
          </mxGeometry>
        </mxCell>
        <mxCell id="WXJM2lwCBf-DWaWHUaFj-88" value="Cesta" style="strokeWidth=1;shadow=0;dashed=0;align=center;html=1;shape=mxgraph.mockup.buttons.button;strokeColor=#666666;fontColor=#ffffff;mainText=;buttonStyle=round;fontSize=17;fontStyle=1;fillColor=#008cff;whiteSpace=wrap;" vertex="1" parent="1">
          <mxGeometry x="354" y="430" width="120" height="50" as="geometry" />
        </mxCell>
      </root>
    </mxGraphModel>
  </diagram>
</mxfile>
